/* XPM */
static char *align31[] = {
/* columns rows colors chars-per-pixel */
"16 16 11 1",
"  c opaque",
". c #2b2b2c",
"X c #313132",
"o c #5a5a5a",
"O c #949495",
"+ c #979798",
"@ c #99999a",
"# c #aeaeaf",
"$ c #b0b0b2",
"% c #d6d6d8",
"& c #fdfdfe",
/* pixels */
"&&&&&&&&&&&&&&&&",
"&&&&&&&&&&&&&&&&",
"&&&&&&&&&&&&&&&&",
"&&&&&&&&&&&&&&&&",
"&&&&&&&&&&&&&&&&",
"&&&&&&&&&&&&&&&&",
"&&&&&&&&&&&&&&&&",
"&&&&&&&&&&&&&&&&",
"&&&&&&&&&&&&&&&&",
"&&&&&&&&&&&&&&&&",
"&&&&&&&&&&&&&&&&",
"&&&&&&&&&&&oX.#&",
"&&&&&&&&&&&X  @&",
"&&&&&&&&&&&.  O&",
"&&&&&&&&&&&$@O%&",
"&&&&&&&&&&&&&&&&"
};
