/* XPM */
static char *align11[] = {
/* width height num_colors chars_per_pixel */
"    40    40        3            1",
/* colors */
". c #272727",
"# c #ffffff",
"a c #000000",
/* pixels */
".###.###.###.###.###.###.###.###.###.###",
"########################################",
"########################################",
"########################################",
".###.###.###.###.###.###.###.###.###.###",
"########################################",
"########################################",
"########################################",
".###.###.###.###.###.###.###.###.###.###",
"########################################",
"########################################",
"########################################",
".###.###.###.###.###.###.###.###.###.###",
"########################################",
"########################################",
"########################################",
".###.###.###.###.###.###.###.###.###.###",
"########################################",
"########################################",
"########################################",
".###.###.###.###.###.###.###.###.###.###",
"########################################",
"########################################",
"########################################",
".###.###.###.###.###.###.###.###.###.###",
"########################################",
"########################################",
"########################################",
".###aaaaaaaa.###.###.###.###.###.###.###",
"####aaaaaaaa############################",
"####aaaaaaaa############################",
"####aaaaaaaa############################",
".###aaaaaaaa.###.###.###.###.###.###.###",
"####aaaaaaaa############################",
"####aaaaaaaa############################",
"####aaaaaaaa############################",
".###.###.###.###.###.###.###.###.###.###",
"########################################",
"########################################",
"########################################"
};
