/* XPM */
static char *align32[] = {
/* columns rows colors chars-per-pixel */
"16 16 9 1",
"  c opaque",
". c #2b2b2b",
"X c #313131",
"o c #616161",
"O c #959595",
"+ c #989899",
"@ c #afafb0",
"# c #d6d6d7",
"$ c #fdfdfd",
/* pixels */
"$$$$$$$$$$$$$$$$",
"$$$$$$$$$$$$$$$$",
"$$$$$$$$$$$$$$$$",
"$$$$$$$$$$$$$$$$",
"$$$$$$$$$$$$$$$$",
"$$$$$$$$$$$@OO#$",
"$$$$$$$$$$$.  O$",
"$$$$$$$$$$$X  +$",
"$$$$$$$$$$$oX.@$",
"$$$$$$$$$$$$$$$$",
"$$$$$$$$$$$$$$$$",
"$$$$$$$$$$$$$$$$",
"$$$$$$$$$$$$$$$$",
"$$$$$$$$$$$$$$$$",
"$$$$$$$$$$$$$$$$",
"$$$$$$$$$$$$$$$$"
};
