/* XPM */
static char *align21[] = {
/* columns rows colors chars-per-pixel */
"16 16 11 1",
"  c opaque",
". c #2c2c2c",
"X c #5b5b5b",
"o c #636364",
"O c #838384",
"+ c #89898a",
"@ c #949495",
"# c #979798",
"$ c #c2c2c3",
"% c #f5f5f6",
"& c #fcfcfd",
/* pixels */
"&&&&&&&&&&&&&&&&",
"&&&&&&&&&&&&&&&&",
"&&&&&&&&&&&&&&&&",
"&&&&&&&&&&&&&&&&",
"&&&&&&&&&&&&&&&&",
"&&&&&&&&&&&&&&&&",
"&&&&&&&&&&&&&&&&",
"&&&&&&&&&&&&&&&&",
"&&&&&&&&&&&%&&&&",
"&&&&&&&&&&&&&&&&",
"&&&&&&&&&&&&&&&&",
"&&&&%&O..+&&&&&&",
"&&&&&&o  o&&&&&&",
"&&&&%&X  o&%&&&&",
"&&&&&&$##$&&&&&&",
"&&&&&&&&&&&&&&&&"
};
