/* XPM */
static char *align22[] = {
/* columns rows colors chars-per-pixel */
"16 16 7 1",
"  c opaque",
". c #5b5b5b",
"X c #616163",
"o c #9e9e9f",
"O c #a3a3a4",
"+ c #a8a8aa",
"@ c #fcfcfd",
/* pixels */
"@@@@@@@@@@@@@@@@",
"@@@@@@@@@@@@@@@@",
"@@@@@@@@@@@@@@@@",
"@@@@@@@@@@@@@@@@",
"@@@@@@@@@@@@@@@@",
"@@@@@@@@@@@@@@@@",
"@@@@@@+.XO@@@@@@",
"@@@@@@X  .@@@@@@",
"@@@@@@X  .@@@@@@",
"@@@@@@o..o@@@@@@",
"@@@@@@@@@@@@@@@@",
"@@@@@@@@@@@@@@@@",
"@@@@@@@@@@@@@@@@",
"@@@@@@@@@@@@@@@@",
"@@@@@@@@@@@@@@@@",
"@@@@@@@@@@@@@@@@"
};
