/* XPM */
static char *align13[] = {
/* columns rows colors chars-per-pixel */
"16 16 14 1",
"  c #000000",
". c #0b0b0b",
"X c #3a3a3a",
"o c #3f3f40",
"O c #4f4f50",
"+ c #959595",
"@ c #9d9d9d",
"# c #c1c1c2",
"$ c #d1d1d2",
"% c #e6e6e7",
"& c #e7e7e8",
"* c #eaeaeb",
"= c #f6f6f7",
"- c #fdfdfd",
/* pixels */
"-&##$==---------",
"-+  O-----------",
"-+  X-----------",
"-@ .O-----------",
"-=&&*-----------",
"----------------",
"--=-------------",
"----------------",
"----------------",
"----------------",
"----------------",
"----=-----------",
"----------------",
"----------------",
"----------------",
"----------------"
};
