/* XPM */
static char *align11[] = {
/* columns rows colors chars-per-pixel */
"16 16 14 1",
"  c opaque",
". c #252526",
"X c #303030",
"o c #373738",
"O c #383839",
"+ c #666667",
"@ c #8d8d8e",
"# c #919192",
"$ c #979798",
"% c #a8a8a9",
"& c #afafb0",
"* c #d2d2d3",
"= c #f6f6f7",
"- c #fdfdfe",
/* pixels */
"----------------",
"----------------",
"----------------",
"----------------",
"----------------",
"----------------",
"----------------",
"----------------",
"----------------",
"----=-----------",
"----------------",
"-%.X+------==---",
"-#  o-----------",
"-@  o-----------",
"-*#$&-----------",
"----------------"
};
