/* XPM */
static char *align23[] = {
/* columns rows colors chars-per-pixel */
"16 16 11 1",
"  c opaque",
". c #2b2b2c",
"X c #2f2f30",
"o c #616161",
"O c #949495",
"+ c #989899",
"@ c #afafb0",
"# c #b1b1b1",
"$ c #d6d6d7",
"% c #f6f6f7",
"& c #fdfdfd",
/* pixels */
"&&&&&&&&&&&&&&&&",
"&&&&&$O+#&&&&&&&",
"&&&%&+  .&&&&&&&",
"&&&&&+  X&&&&&&&",
"&&&%&#.Xo&&&&&&&",
"&&&&&&&&&&&&&&&&",
"&&&&&&&&&&&&&&&&",
"&&&&&&&&&&&&&&&&",
"&&&&&&&&&&&&&&&&",
"&&&%&&&&&&&&&&&&",
"&&&&&&&&&&&&&&&&",
"&&&&&&&&&&&&&&&&",
"&&&&&&&&&&&&&&&&",
"&&&&&&&&&&&&&&&&",
"&&&&&&&&&&&&&&&&",
"&&&&&&&&&&&&&&&&"
};
