/* XPM */
static char *align33[] = {
/* columns rows colors chars-per-pixel */
"16 16 11 1",
"  c opaque",
". c #2b2b2d",
"X c #313131",
"o c #606061",
"O c #949495",
"+ c #979798",
"@ c #aeaeae",
"# c #b0b0b2",
"$ c #d7d7d8",
"% c #f6f6f7",
"& c #fdfdfe",
/* pixels */
"&&&&&&&&&&&&&&&&",
"&&&&&&&&&&&#+O$&",
"&&&&&&&&&%&.  O&",
"&&&&&&&&&&&X  +&",
"&&&&&&&&&&&oX.#&",
"&&&&&&&&&&&&&&&&",
"&&&&&&&&&&&&&&&&",
"&&&&&&&&&&&&&&&&",
"&&&&&&&&&&&&&&&&",
"&&&%%&&&&&&&&&&&",
"&&&&&&&&&&&&&&&&",
"&&&&&&&&&&&&&&&&",
"&&&&&&&&&&&&&&&&",
"&&&&&&&&&&&&&&&&",
"&&&&&&&&&&&&&&&&",
"&&&&&&&&&&&&&&&&"
};
