/* XPM */
static char *curlyline_arrow[]={
"16 16 3 1",
"# c None",
". c None",
"a c #000000",
"................",
".........#aaaaa.",
"..........#aaaa.",
"...........#aaa.",
"...........a#aa.",
"..........a#.#a.",
".........#a#..#.",
".........##a....",
".........#a.....",
"....aaa..a......",
"...a###aa.......",
"..a#..##........",
".#a#............",
".##a............",
"###a#...........",
"#aa............."};
