/* XPM */
static char *gaxis[]={
"16 16 4 1",
"b c None",
". c None",
"a c #000000",
"# c #000040",
".#..............",
".#..............",
".aaa............",
".#......b......b",
".#...bbbbb.b..bb",
".aabbbbbb.bb.bbb",
".#.bbbbbb.b..bbb",
".#.bbbbbbbb.bbb.",
".aaabbbbbbbbbb..",
".#b..bbbbbbbbb..",
".#.......bbbb...",
".aab............",
".#..b..a..b..a..",
".#..a..a..a..ab.",
".###############",
"................"};
