/* XPM */
static char *graph_file[]={
"16 16 4 1",
"b c None",
". c None",
"# c #000040",
"a c #0000c0",
".#..............",
".#..............",
".#..............",
".#..............",
".#....a.........",
".#...aaa.......a",
".#..aa.aa.....aa",
".#.aa...aa...aa.",
".#aa.....aa.aa..",
".#a.......aaa...",
"b#.........a....",
"b#..............",
".#..............",
".#..............",
".###############",
"................"};
