/* XPM */
static char *latex_file[]={
"16 16 3 1",
"a c None",
". c None",
"# c #000000",
"................",
"................",
"######..#####...",
".###....a#aaa...",
".###...a#aa.a...",
".###..a#a.......",
".###.a#a........",
".###a#a.........",
".######.........",
".###.###........",
".###..###.......",
".###...###......",
".###....###.a...",
".###.....##aa...",
"#####...#####...",
"................"};
