/* XPM */
static char *latex_file[]={
"16 16 3 1",
"# c None",
". c None",
"a c #000000",
"................",
"................",
"#aaaaaaaaaaaa...",
".#aaa...###aa...",
".#aaa..###..a...",
".#aaa.##.#......",
".#aaa##..a......",
".#aaa###aa......",
".#aaaaaaaa......",
".#aaa###aa......",
".#aaa.###a......",
".#aaa..####.....",
".#aaa...###.....",
".#aaa....##.....",
"#aaaaa..#####...",
"................"};
