/* XPM */
static char *picture[]={
"16 16 7 1",
"b c None",
". c None",
"d c #0000ff",
"a c #008080",
"c c #00ffff",
"e c #ff0000",
"# c #ffff00",
"................",
".#...aaaaaaaa...",
"..#bbaaaaaaaa..#",
".bb#baacccaaa##.",
".bbb#aaccca##...",
"..bbd#aa###aa...",
"...dda##aaaaae..",
"....##d#deeeeee.",
".###dddd#eeeee..",
"....ddddd#b.....",
"...eeddd.b#.....",
"..eeeeee..b#....",
"..eeeeeee..b#...",
"...eeeee....b#..",
"....eee.......#.",
"................"};
