/* XPM */
static char *pregion[]={
"16 16 3 1",
"# c None",
". c None",
"a c #000000",
"................",
".#.....aaaaaaa..",
".#....a.......a.",
".####a#######.a.",
".##.a.......#.a.",
".##a........##a.",
".#a..........#a.",
".aa.........##a.",
"..a........###a.",
"..a........###a.",
"..#a.......##a..",
"..#a.......aa#..",
"..#.a.....a##...",
"..##a###aa###...",
"..###aaa####....",
"................"};
