/* XPM */
static char *removegrid[]={
"16 16 3 1",
"# c None",
"a c #000000",
". c #ff0000",
"..############..",
"...#a##a##a##...",
"#...########...#",
"##...######...##",
"#a#...#a##...a##",
"####...##...####",
"#####......#####",
"#a##a#....a##a##",
"######....######",
"#####......#####",
"#a##...a#...#a##",
"###...####...###",
"##...######...##",
"#...a##a##a#...#",
"...##########...",
"..############.."};
