/* XPM */
static char *rregion[]={
"16 16 4 1",
"a c None",
". c None",
"# c #000000",
"b c #303030",
"................",
"................",
"................",
"..#.#.#.#a#a#...",
"................",
"..baaaaaaaaa#a..",
"..a..........a..",
"..b.........#a..",
"..a..........a..",
"..b.........#a..",
"..a..........a..",
"..b.........#a..",
"..aaaaaaaaaaaa..",
"..#a#a#a#a#a#a..",
"................",
"................"};
