/* XPM */
static char *tsplinex[]={
"16 16 5 1",
". c None",
"b c #000000",
"# c #303030",
"a c #c3c3c3",
"c c #c6c6c6",
"................",
"................",
"................",
"....#######.....",
"..##aaaaaaa##...",
".##aabaaabaa##..",
".#aaaababaaaa#..",
".#aaaaabaaaaa#..",
".#aaaababaaaa#..",
".##aabaacbaa##..",
"..##aaaaacc##...",
"...bcccccccb....",
"...b....bbb.....",
"....b..b........",
".....bb.........",
"................"};
