/* XPM */
static char *unzoom[]={
"16 16 57 1",
"a c None",
"# c #000000",
"E c #0f0f0f",
"2 c #1f0000",
"b c #202020",
"g c #2b2b2b",
"Q c #303030",
"m c #383838",
"V c #3d0c02",
"T c #3f1405",
"s c #414141",
"P c #460b03",
"Z c #4a1304",
"D c #4a4a4a",
"W c #4c1706",
"c c #5d5d5d",
"f c #676767",
"i c #6a9aca",
"q c #6a9cce",
"A c #6b6b6b",
"d c #6c6c6c",
"j c #6c9ccb",
"u c #6f8ca5",
"t c #71777e",
"e c #747474",
"n c #748ea7",
"h c #789cbf",
"k c #81a4c7",
"v c #84919e",
"w c #8f99a2",
"K c #919191",
"y c #979797",
"N c #9a9a9a",
"R c #9b563c",
"1 c #a12602",
"z c #a2a2a2",
"C c #a2bdc1",
"r c #a4b7ca",
"l c #a5b2bf",
"M c #a7a7a7",
"o c #b5d6f1",
"B c #b7bcbe",
"L c #bababa",
"p c #c0c0ff",
"F c #c3c3c3",
"H c #ccced1",
"x c #cdd1d5",
"0 c #ce3a08",
"O c #d5b3a6",
"G c #d5d5d5",
"Y c #d64310",
"X c #da4a1d",
"J c #e0e0e0",
"I c #e1e5e9",
"U c #e55925",
". c #ff0000",
"S c #ff7845",
"..#######aaaaa..",
"a..bcdefg##aa..a",
"##..hijkld#a..aa",
"#mn..oppqrs..aaa",
"#tup..pppn..aaaa",
"#vppp..pp..#aaaa",
"#wpppp....x#aaaa",
"#yppppp..pz#aaaa",
"#ABCpp....D#aaaa",
"#EFGH..IJ..##aaa",
"a#EK..LMNO..P#aa",
"aa#..Qb##RS..P#a",
"aa..aaaa#TUS..V#",
"a..aaaaaa#WXY..#",
"..aaaaaaaa#Z01..",
".aaaaaaaaaa#2##."};
