/* XPM */
static char *usegrid[]={
"16 16 3 1",
"a c None",
". c None",
"# c #000000",
"................",
".#..#..#..#..#..",
"................",
"..a.a.aaa.a.a...",
".#..#..#..#..#..",
"..a.........a...",
"................",
".#a.#..#..#.a#..",
"................",
"..a.........a...",
".#a.#..#..#..#..",
"..a.........a...",
"................",
".#a.#aa#a.#aa#..",
"................",
"................"};
