/* XPM */
static char *zoom_in[] = {
/* columns rows colors chars-per-pixel */
"16 16 96 2",
"   c black",
".  c #0D0300",
"X  c #0C0C0C",
"o  c gray6",
"O  c #1F0000",
"+  c #3D0C02",
"@  c #3F1405",
"#  c #202020",
"$  c gray13",
"%  c gray17",
"&  c gray19",
"*  c gray22",
"=  c #460B03",
"-  c #4A1304",
";  c #4C1706",
":  c #6F1903",
">  c gray25",
",  c #414141",
"<  c gray29",
"1  c #505050",
"2  c #5D5D5D",
"3  c #6E5D48",
"4  c #676767",
"5  c gray42",
"6  c #6C6C6C",
"7  c #746B60",
"8  c #71777E",
"9  c #7C7B72",
"0  c #7E868D",
"q  c #77899A",
"w  c #798B99",
"e  c #6C90B2",
"r  c #A12602",
"t  c #BA280D",
"y  c #96590C",
"u  c #9A5500",
"i  c #99590B",
"p  c #9A5E0F",
"a  c #9B563C",
"s  c #99611C",
"d  c #906126",
"f  c #946529",
"g  c #A05E00",
"h  c #A66700",
"j  c #AC7000",
"k  c #B37A00",
"l  c #C52A0D",
"z  c #C72D0B",
"x  c #CE3A08",
"c  c #D33F0B",
"v  c #D64310",
"b  c #DA4A1D",
"n  c #DF623C",
"m  c #E65729",
"M  c #E55925",
"N  c #F4693A",
"B  c #FF7845",
"V  c #97804F",
"C  c #89806C",
"Z  c #91806B",
"A  c #9E977A",
"S  c #BD9A70",
"D  c #C69500",
"F  c #FFE900",
"G  c #918F87",
"H  c #979583",
"J  c gray57",
"K  c #929495",
"L  c #979797",
"P  c #9A9A9A",
"I  c #93B0B4",
"U  c #A3A68F",
"Y  c #A0A2A3",
"T  c #A2A2A2",
"R  c #A7A7A7",
"E  c #AEAEAE",
"W  c #A5B2BF",
"Q  c #B7BCBE",
"!  c gray73",
"~  c #A4B7CA",
"^  c #A1BDC1",
"/  c #CBB292",
"(  c #C9BCAC",
")  c #D5B3A6",
"_  c #C3C3C3",
"`  c gray79",
"'  c #CDD1D5",
"]  c #D5D5D5",
"[  c #D7D7D7",
"{  c #CDD7E1",
"}  c #C6E0F0",
"|  c #C9E3F2",
" . c gray88",
".. c #E6E6E6",
"X. c #E1E5E9",
"o. c None",
/* pixels */
"o.o.              o.o.o.o.o.o.o.",
"o.    # 2 3 7 4 %     o.o.o.o.o.",
"    1 0 s u u G W 6   o.o.o.o.o.",
"  * q 9 j F j f e ~ ,   o.o.o.o.",
"  8 d k D F D k u q T   o.o.o.o.",
"  Z g F F F F F h C {   o.o.o.o.",
"  K y j D F D j u H '   o.o.o.o.",
"  L I V k F k p U | T   o.o.o.o.",
"  6 Q ^ i k u A } ..<   o.o.o.o.",
"  X _ ] ( S / X. .E ,     o.o.o.",
"o.  o J [ ` ! R P ) n t =   o.o.",
"o.o.      & #     a B N l =   o.",
"o.o.o.o.o.o.o.o.  @ M B m z +   ",
"o.o.o.o.o.o.o.o.o.  ; b v c :   ",
"o.o.o.o.o.o.o.o.o.o.  - x r .   ",
"o.o.o.o.o.o.o.o.o.o.o.  O     o."
};
