/* XPM */
static char *zoom_out[] = {
/* columns rows colors chars-per-pixel */
"16 16 103 2",
"   c black",
".  c #0D0300",
"X  c #0C0C0C",
"o  c gray6",
"O  c #1F0000",
"+  c #3D0C02",
"@  c #3F1405",
"#  c #202020",
"$  c gray13",
"%  c gray17",
"&  c gray19",
"*  c gray22",
"=  c #460B03",
"-  c #4A1304",
";  c #4C1706",
":  c #6F1903",
">  c gray25",
",  c #414141",
"<  c gray29",
"1  c #505050",
"2  c #5D5D5D",
"3  c #676767",
"4  c gray42",
"5  c #6C6C6C",
"6  c #747474",
"7  c #71777E",
"8  c #7A8A9A",
"9  c #6F8CA5",
"0  c #748EA7",
"q  c #768FA6",
"w  c #789CBF",
"e  c #6A9ACA",
"r  c #6A9CCE",
"t  c #6C9CCB",
"y  c #74A6D5",
"u  c #A12602",
"i  c #BA280D",
"p  c #9A5500",
"a  c #935D19",
"s  c #965F1A",
"d  c #9B563C",
"f  c #8D6633",
"g  c #896A3F",
"h  c #9A783F",
"j  c #9F7A3F",
"k  c #B37A00",
"l  c #B37F3F",
"z  c #9C7A4B",
"x  c #9D7C4C",
"c  c #C52A0D",
"v  c #C72D0B",
"b  c #CE3A08",
"n  c #D33F0B",
"m  c #D64310",
"M  c #DA4A1D",
"N  c #DF623C",
"B  c #E65729",
"V  c #E55925",
"C  c #F4693A",
"Z  c #FF7845",
"A  c #B98300",
"S  c #968D74",
"D  c #CC9F00",
"F  c #E5C400",
"G  c #84919E",
"H  c gray57",
"J  c #979797",
"K  c #9A9A9A",
"L  c #8F99A2",
"P  c #97BABA",
"I  c #9ABFBF",
"U  c #A0A2A3",
"Y  c #A2A2A2",
"T  c #A7A7A7",
"R  c #AEAEAE",
"E  c #A5B2BF",
"W  c #A1BBB9",
"Q  c #B7BCBE",
"!  c gray73",
"~  c #81A4C7",
"^  c #90BDE5",
"/  c #A4B7CA",
"(  c #A2BDC1",
")  c #9FC0BF",
"_  c #98CBEF",
"`  c #9FCBEF",
"'  c #B5D6F1",
"]  c #C1A685",
"[  c #D5B3A6",
"{  c #C3C3C3",
"}  c gray79",
"|  c #C3CDD0",
" . c #CCCED1",
".. c #CDD1D5",
"X. c #D5D5D5",
"o. c #D7D7D7",
"O. c #C5D9E3",
"+. c #CDD7E1",
"@. c #D0DDE6",
"#. c gray88",
"$. c #E6E6E6",
"%. c #E1E5E9",
"&. c None",
/* pixels */
"&.&.              &.&.&.&.&.&.&.",
"&.    # 2 5 6 3 %     &.&.&.&.&.",
"    1 8 w e t ~ E 5   &.&.&.&.&.",
"  * 0 y ` ' _ ^ r / ,   &.&.&.&.",
"  7 9 x l l j h z 0 Y   &.&.&.&.",
"  G f D F F F F k g +.  &.&.&.&.",
"  L a D F F F F A s ..  &.&.&.&.",
"  J S p p p p p p ] Y   &.&.&.&.",
"  4 Q ( P I ) W | $.<   &.&.&.&.",
"  o { X. .O.@.%.#.R ,     &.&.&.",
"&.  o H o.} ! T K [ N i =   &.&.",
"&.&.      & #     d Z C c =   &.",
"&.&.&.&.&.&.&.&.  @ V Z B v +   ",
"&.&.&.&.&.&.&.&.&.  ; M m n :   ",
"&.&.&.&.&.&.&.&.&.&.  - b u .   ",
"&.&.&.&.&.&.&.&.&.&.&.  O     &."
};
